<?xml version="1.0" encoding="UTF-8"?>
<svg version="1.1" xmlns="http://www.w3.org/2000/svg" width="250" height="250">
<path d="M0 0 C2.97 0 5.94 0 9 0 C9 2.64 9 5.28 9 8 C11.31 8 13.62 8 16 8 C16 5.36 16 2.72 16 0 C21.28 0 26.56 0 32 0 C32 7.92 32 15.84 32 24 C39.59 24 47.18 24 55 24 C55 21.36 55 18.72 55 16 C57.64 16 60.28 16 63 16 C63 18.64 63 21.28 63 24 C65.31 24 67.62 24 70 24 C70 21.36 70 18.72 70 16 C75.61 16 81.22 16 87 16 C87.495 27.385 87.495 27.385 88 39 C90.31 39 92.62 39 95 39 C95 44.28 95 49.56 95 55 C97.64 55 100.28 55 103 55 C103 65.56 103 76.12 103 87 C100.36 87 97.72 87 95 87 C95 91.95 95 96.9 95 102 C97.64 102 100.28 102 103 102 C103 107.28 103 112.56 103 118 C105.31 118 107.62 118 110 118 C110 122.95 110 127.9 110 133 C112.64 133 115.28 133 118 133 C118 135.64 118 138.28 118 141 C120.64 141 123.28 141 126 141 C126 143.64 126 146.28 126 149 C128.64 149 131.28 149 134 149 C134 151.97 134 154.94 134 158 C131.36 158 128.72 158 126 158 C126 160.31 126 162.62 126 165 C123.36 165 120.72 165 118 165 C118 167.64 118 170.28 118 173 C112.72 173 107.44 173 102 173 C102 170.36 102 167.72 102 165 C99.69 165 97.38 165 95 165 C95 170.28 95 175.56 95 181 C89.39 181 83.78 181 78 181 C78 178.36 78 175.72 78 173 C75.69 173 73.38 173 71 173 C71 175.64 71 178.28 71 181 C63.08 181 55.16 181 47 181 C47 178.36 47 175.72 47 173 C44.36 173 41.72 173 39 173 C39 170.36 39 167.72 39 165 C31.41 165 23.82 165 16 165 C16 162.69 16 160.38 16 158 C13.36 158 10.72 158 8 158 C8 152.39 8 146.78 8 141 C10.64 141 13.28 141 16 141 C16 138.69 16 136.38 16 134 C13.36 134 10.72 134 8 134 C8 126.08 8 118.16 8 110 C10.64 110 13.28 110 16 110 C16 107.69 16 105.38 16 103 C13.36 103 10.72 103 8 103 C8 100.36 8 97.72 8 95 C5.36 95 2.72 95 0 95 C0 89.72 0 84.44 0 79 C-2.64 79 -5.28 79 -8 79 C-8 71.08 -8 63.16 -8 55 C-5.36 55 -2.72 55 0 55 C0 52.69 0 50.38 0 48 C-2.64 48 -5.28 48 -8 48 C-8 34.8 -8 21.6 -8 8 C-5.36 8 -2.72 8 0 8 C0 5.36 0 2.72 0 0 Z " fill="#B08953" transform="translate(62,46)"/>
<path d="M0 0 C5.61 0 11.22 0 17 0 C17.495 11.385 17.495 11.385 18 23 C20.31 23 22.62 23 25 23 C25 28.28 25 33.56 25 39 C27.64 39 30.28 39 33 39 C33 49.56 33 60.12 33 71 C30.36 71 27.72 71 25 71 C25 75.95 25 80.9 25 86 C27.64 86 30.28 86 33 86 C33 91.28 33 96.56 33 102 C35.31 102 37.62 102 40 102 C40 106.95 40 111.9 40 117 C42.64 117 45.28 117 48 117 C48 119.64 48 122.28 48 125 C50.64 125 53.28 125 56 125 C56 127.64 56 130.28 56 133 C58.64 133 61.28 133 64 133 C64 135.97 64 138.94 64 142 C61.36 142 58.72 142 56 142 C56 144.31 56 146.62 56 149 C53.36 149 50.72 149 48 149 C48 151.64 48 154.28 48 157 C42.72 157 37.44 157 32 157 C32 154.36 32 151.72 32 149 C29.69 149 27.38 149 25 149 C25 154.28 25 159.56 25 165 C19.39 165 13.78 165 8 165 C8 162.36 8 159.72 8 157 C5.69 157 3.38 157 1 157 C1 159.64 1 162.28 1 165 C-6.92 165 -14.84 165 -23 165 C-23 162.36 -23 159.72 -23 157 C-25.64 157 -28.28 157 -31 157 C-31 154.36 -31 151.72 -31 149 C-38.59 149 -46.18 149 -54 149 C-54 146.69 -54 144.38 -54 142 C-56.64 142 -59.28 142 -62 142 C-62 136.39 -62 130.78 -62 125 C-59.36 125 -56.72 125 -54 125 C-54 127.64 -54 130.28 -54 133 C-51.36 133 -48.72 133 -46 133 C-46 135.64 -46 138.28 -46 141 C-40.72 141 -35.44 141 -30 141 C-30 138.69 -30 136.38 -30 134 C-27.69 134 -25.38 134 -23 134 C-23 138.95 -23 143.9 -23 149 C-20.36 149 -17.72 149 -15 149 C-15 151.64 -15 154.28 -15 157 C-12.36 157 -9.72 157 -7 157 C-7 154.36 -7 151.72 -7 149 C-2.05 149 2.9 149 8 149 C8 146.36 8 143.72 8 141 C5.69 141 3.38 141 1 141 C1 138.36 1 135.72 1 133 C-1.64 133 -4.28 133 -7 133 C-7 120.13 -7 107.26 -7 94 C-4.36 94 -1.72 94 1 94 C1 91.36 1 88.72 1 86 C3.31 86 5.62 86 8 86 C8 83.69 8 81.38 8 79 C10.64 79 13.28 79 16 79 C16 73.72 16 68.44 16 63 C18.64 63 21.28 63 24 63 C24 55.41 24 47.82 24 40 C21.36 40 18.72 40 16 40 C16 37.36 16 34.72 16 32 C13.69 32 11.38 32 9 32 C9 24.08 9 16.16 9 8 C6.36 8 3.72 8 1 8 C1 10.64 1 13.28 1 16 C-1.64 16 -4.28 16 -7 16 C-7 13.36 -7 10.72 -7 8 C-4.69 8 -2.38 8 0 8 C0 5.36 0 2.72 0 0 Z " fill="#535352" transform="translate(132,62)"/>
<path d="M0 0 C2.97 0 5.94 0 9 0 C9 2.64 9 5.28 9 8 C11.31 8 13.62 8 16 8 C16 5.36 16 2.72 16 0 C21.28 0 26.56 0 32 0 C32 7.92 32 15.84 32 24 C39.59 24 47.18 24 55 24 C55 21.36 55 18.72 55 16 C57.64 16 60.28 16 63 16 C63 21.28 63 26.56 63 32 C65.64 32 68.28 32 71 32 C71 29.36 71 26.72 71 24 C73.64 24 76.28 24 79 24 C79 31.92 79 39.84 79 48 C76.36 48 73.72 48 71 48 C71 50.64 71 53.28 71 56 C65.72 56 60.44 56 55 56 C55 58.31 55 60.62 55 63 C52.36 63 49.72 63 47 63 C47 65.64 47 68.28 47 71 C39.41 71 31.82 71 24 71 C24 68.36 24 65.72 24 63 C21.36 63 18.72 63 16 63 C16 60.69 16 58.38 16 56 C13.36 56 10.72 56 8 56 C8 63.59 8 71.18 8 79 C2.72 79 -2.56 79 -8 79 C-8 71.08 -8 63.16 -8 55 C-5.36 55 -2.72 55 0 55 C0 52.69 0 50.38 0 48 C-2.64 48 -5.28 48 -8 48 C-8 34.8 -8 21.6 -8 8 C-5.36 8 -2.72 8 0 8 C0 5.36 0 2.72 0 0 Z " fill="#FADE6F" transform="translate(62,46)"/>
<path d="M0 0 C18.15 0 36.3 0 55 0 C55 12.87 55 25.74 55 39 C57.64 39 60.28 39 63 39 C63 41.64 63 44.28 63 47 C65.31 47 67.62 47 70 47 C70 49.64 70 52.28 70 55 C65.05 55 60.1 55 55 55 C55 57.64 55 60.28 55 63 C52.36 63 49.72 63 47 63 C47 60.36 47 57.72 47 55 C44.36 55 41.72 55 39 55 C39 50.05 39 45.1 39 40 C36.69 40 34.38 40 32 40 C32 42.31 32 44.62 32 47 C26.72 47 21.44 47 16 47 C16 44.36 16 41.72 16 39 C13.36 39 10.72 39 8 39 C8 34.05 8 29.1 8 24 C5.36 24 2.72 24 0 24 C0 16.08 0 8.16 0 0 Z " fill="#B58A59" transform="translate(70,156)"/>
<path d="M0 0 C2.64 0 5.28 0 8 0 C8 5.28 8 10.56 8 16 C10.31 16 12.62 16 15 16 C15 20.95 15 25.9 15 31 C17.64 31 20.28 31 23 31 C23 33.64 23 36.28 23 39 C25.64 39 28.28 39 31 39 C31 41.64 31 44.28 31 47 C33.64 47 36.28 47 39 47 C39 49.97 39 52.94 39 56 C36.36 56 33.72 56 31 56 C31 58.31 31 60.62 31 63 C28.36 63 25.72 63 23 63 C23 65.64 23 68.28 23 71 C17.72 71 12.44 71 7 71 C7 68.36 7 65.72 7 63 C4.69 63 2.38 63 0 63 C0 68.28 0 73.56 0 79 C-5.61 79 -11.22 79 -17 79 C-17 76.36 -17 73.72 -17 71 C-19.31 71 -21.62 71 -24 71 C-24 73.64 -24 76.28 -24 79 C-31.92 79 -39.84 79 -48 79 C-48 76.36 -48 73.72 -48 71 C-50.64 71 -53.28 71 -56 71 C-56 68.36 -56 65.72 -56 63 C-63.59 63 -71.18 63 -79 63 C-79 60.69 -79 58.38 -79 56 C-81.64 56 -84.28 56 -87 56 C-87 50.39 -87 44.78 -87 39 C-84.36 39 -81.72 39 -79 39 C-79 41.64 -79 44.28 -79 47 C-76.36 47 -73.72 47 -71 47 C-71 49.64 -71 52.28 -71 55 C-65.72 55 -60.44 55 -55 55 C-55 52.69 -55 50.38 -55 48 C-52.69 48 -50.38 48 -48 48 C-48 52.95 -48 57.9 -48 63 C-45.36 63 -42.72 63 -40 63 C-40 65.64 -40 68.28 -40 71 C-37.36 71 -34.72 71 -32 71 C-32 68.36 -32 65.72 -32 63 C-27.05 63 -22.1 63 -17 63 C-17 60.36 -17 57.72 -17 55 C-19.31 55 -21.62 55 -24 55 C-24 50.05 -24 45.1 -24 40 C-21.69 40 -19.38 40 -17 40 C-17 42.31 -17 44.62 -17 47 C-14.36 47 -11.72 47 -9 47 C-9 52.28 -9 57.56 -9 63 C-11.31 63 -13.62 63 -16 63 C-16 65.64 -16 68.28 -16 71 C-13.36 71 -10.72 71 -8 71 C-8 68.36 -8 65.72 -8 63 C-5.69 63 -3.38 63 -1 63 C-1 60.36 -1 57.72 -1 55 C1.64 55 4.28 55 7 55 C7 42.13 7 29.26 7 16 C4.69 16 2.38 16 0 16 C0 10.72 0 5.44 0 0 Z " fill="#503F2F" transform="translate(157,148)"/>
<path d="M0 0 C2.97 0 5.94 0 9 0 C9 2.64 9 5.28 9 8 C11.31 8 13.62 8 16 8 C16 5.36 16 2.72 16 0 C21.28 0 26.56 0 32 0 C32 7.92 32 15.84 32 24 C39.59 24 47.18 24 55 24 C55 31.92 55 39.84 55 48 C52.36 48 49.72 48 47 48 C47 50.31 47 52.62 47 55 C42.05 55 37.1 55 32 55 C32 50.05 32 45.1 32 40 C29.36 40 26.72 40 24 40 C24 42.64 24 45.28 24 48 C21.36 48 18.72 48 16 48 C16 42.72 16 37.44 16 32 C18.64 32 21.28 32 24 32 C24 24.41 24 16.82 24 9 C21.36 9 18.72 9 16 9 C16 11.64 16 14.28 16 17 C13.36 17 10.72 17 8 17 C8 14.36 8 11.72 8 9 C5.69 9 3.38 9 1 9 C1 21.87 1 34.74 1 48 C3.31 48 5.62 48 8 48 C8 50.31 8 52.62 8 55 C5.36 55 2.72 55 0 55 C0 52.69 0 50.38 0 48 C-2.64 48 -5.28 48 -8 48 C-8 34.8 -8 21.6 -8 8 C-5.36 8 -2.72 8 0 8 C0 5.36 0 2.72 0 0 Z " fill="#AC965B" transform="translate(62,46)"/>
<path d="M0 0 C2.31 0 4.62 0 7 0 C7 2.64 7 5.28 7 8 C9.64 8 12.28 8 15 8 C15 15.59 15 23.18 15 31 C12.36 31 9.72 31 7 31 C7 36.28 7 41.56 7 47 C4.36 47 1.72 47 -1 47 C-1 49.31 -1 51.62 -1 54 C-3.31 54 -5.62 54 -8 54 C-8 56.64 -8 59.28 -8 62 C-10.64 62 -13.28 62 -16 62 C-16 59.69 -16 57.38 -16 55 C-18.64 55 -21.28 55 -24 55 C-24 52.36 -24 49.72 -24 47 C-21.36 47 -18.72 47 -16 47 C-16 36.44 -16 25.88 -16 15 C-10.72 15 -5.44 15 0 15 C0 10.05 0 5.1 0 0 Z " fill="#B18F5D" transform="translate(141,94)"/>
<path d="M0 0 C2.64 0 5.28 0 8 0 C8 4.95 8 9.9 8 15 C2.72 15 -2.56 15 -8 15 C-8 25.56 -8 36.12 -8 47 C-10.64 47 -13.28 47 -16 47 C-16 41.72 -16 36.44 -16 31 C-18.64 31 -21.28 31 -24 31 C-24 33.64 -24 36.28 -24 39 C-26.31 39 -28.62 39 -31 39 C-31 36.36 -31 33.72 -31 31 C-33.64 31 -36.28 31 -39 31 C-39 33.64 -39 36.28 -39 39 C-41.64 39 -44.28 39 -47 39 C-47 36.36 -47 33.72 -47 31 C-52.28 31 -57.56 31 -63 31 C-63 23.41 -63 15.82 -63 8 C-60.36 8 -57.72 8 -55 8 C-55 10.31 -55 12.62 -55 15 C-52.36 15 -49.72 15 -47 15 C-47 17.64 -47 20.28 -47 23 C-39.41 23 -31.82 23 -24 23 C-24 20.36 -24 17.72 -24 15 C-21.36 15 -18.72 15 -16 15 C-16 12.69 -16 10.38 -16 8 C-10.72 8 -5.44 8 0 8 C0 5.36 0 2.72 0 0 Z " fill="#5E5B55" transform="translate(133,94)"/>
<path d="M0 0 C2.31 0 4.62 0 7 0 C7 2.64 7 5.28 7 8 C9.64 8 12.28 8 15 8 C15 5.36 15 2.72 15 0 C17.64 0 20.28 0 23 0 C23 7.59 23 15.18 23 23 C20.36 23 17.72 23 15 23 C14.67 28.28 14.34 33.56 14 39 C12.02 39 10.04 39 8 39 C8 41.31 8 43.62 8 46 C10.31 46 12.62 46 15 46 C15 46.33 15 46.66 15 47 C12.36 47 9.72 47 7 47 C7 54.59 7 62.18 7 70 C1.72 70 -3.56 70 -9 70 C-9 62.08 -9 54.16 -9 46 C-3.72 46 1.56 46 7 46 C7 43.69 7 41.38 7 39 C4.69 39 2.38 39 0 39 C0 26.13 0 13.26 0 0 Z " fill="#F8E36C" transform="translate(63,55)"/>
<path d="M0 0 C2.64 0 5.28 0 8 0 C8 5.28 8 10.56 8 16 C10.64 16 13.28 16 16 16 C16 13.36 16 10.72 16 8 C18.64 8 21.28 8 24 8 C24 12.95 24 17.9 24 23 C26.31 23 28.62 23 31 23 C31 18.05 31 13.1 31 8 C33.64 8 36.28 8 39 8 C39 18.23 39 28.46 39 39 C34.05 39 29.1 39 24 39 C24 41.64 24 44.28 24 47 C21.36 47 18.72 47 16 47 C16 44.36 16 41.72 16 39 C13.36 39 10.72 39 8 39 C8 34.05 8 29.1 8 24 C5.36 24 2.72 24 0 24 C0 16.08 0 8.16 0 0 Z " fill="#8C6C41" transform="translate(70,156)"/>
<path d="M0 0 C2.64 0 5.28 0 8 0 C8 7.59 8 15.18 8 23 C10.31 23 12.62 23 15 23 C15 15.41 15 7.82 15 0 C17.64 0 20.28 0 23 0 C23 2.64 23 5.28 23 8 C25.64 8 28.28 8 31 8 C31 18.23 31 28.46 31 39 C28.36 39 25.72 39 23 39 C23 41.64 23 44.28 23 47 C20.69 47 18.38 47 16 47 C16 49.64 16 52.28 16 55 C13.36 55 10.72 55 8 55 C8 52.36 8 49.72 8 47 C10.31 47 12.62 47 15 47 C15 41.72 15 36.44 15 31 C12.36 31 9.72 31 7 31 C7 28.69 7 26.38 7 24 C4.69 24 2.38 24 0 24 C0 16.08 0 8.16 0 0 Z " fill="#6B5032" transform="translate(133,164)"/>
<path d="M0 0 C5.61 0 11.22 0 17 0 C17.33 7.59 17.66 15.18 18 23 C20.31 23 22.62 23 25 23 C25 28.28 25 33.56 25 39 C27.64 39 30.28 39 33 39 C33 49.56 33 60.12 33 71 C30.36 71 27.72 71 25 71 C25 75.95 25 80.9 25 86 C22.36 86 19.72 86 17 86 C17 81.05 17 76.1 17 71 C19.31 71 21.62 71 24 71 C24 60.77 24 50.54 24 40 C21.36 40 18.72 40 16 40 C16 37.36 16 34.72 16 32 C13.69 32 11.38 32 9 32 C9 24.08 9 16.16 9 8 C6.36 8 3.72 8 1 8 C1 10.64 1 13.28 1 16 C-1.64 16 -4.28 16 -7 16 C-7 13.36 -7 10.72 -7 8 C-4.69 8 -2.38 8 0 8 C0 5.36 0 2.72 0 0 Z " fill="#2B292B" transform="translate(132,62)"/>
<path d="M0 0 C2.97 0 5.94 0 9 0 C9 2.64 9 5.28 9 8 C11.31 8 13.62 8 16 8 C16 5.36 16 2.72 16 0 C21.28 0 26.56 0 32 0 C32 7.92 32 15.84 32 24 C29.36 24 26.72 24 24 24 C24 19.05 24 14.1 24 9 C21.36 9 18.72 9 16 9 C16 11.64 16 14.28 16 17 C13.36 17 10.72 17 8 17 C8 14.36 8 11.72 8 9 C5.69 9 3.38 9 1 9 C1 21.87 1 34.74 1 48 C3.31 48 5.62 48 8 48 C8 50.31 8 52.62 8 55 C5.36 55 2.72 55 0 55 C0 52.69 0 50.38 0 48 C-2.64 48 -5.28 48 -8 48 C-8 34.8 -8 21.6 -8 8 C-5.36 8 -2.72 8 0 8 C0 5.36 0 2.72 0 0 Z " fill="#242425" transform="translate(62,46)"/>
<path d="M0 0 C2.64 0 5.28 0 8 0 C8 2.64 8 5.28 8 8 C10.64 8 13.28 8 16 8 C16 10.64 16 13.28 16 16 C21.28 16 26.56 16 32 16 C32 13.69 32 11.38 32 9 C34.31 9 36.62 9 39 9 C39 13.95 39 18.9 39 24 C41.64 24 44.28 24 47 24 C47 26.64 47 29.28 47 32 C52.28 32 57.56 32 63 32 C63 34.64 63 37.28 63 40 C55.08 40 47.16 40 39 40 C39 37.36 39 34.72 39 32 C36.36 32 33.72 32 31 32 C31 29.36 31 26.72 31 24 C23.41 24 15.82 24 8 24 C8 21.69 8 19.38 8 17 C5.36 17 2.72 17 0 17 C0 11.39 0 5.78 0 0 Z " fill="#171818" transform="translate(70,187)"/>
<path d="M0 0 C2.64 0 5.28 0 8 0 C8 4.95 8 9.9 8 15 C13.28 15 18.56 15 24 15 C24 17.64 24 20.28 24 23 C26.31 23 28.62 23 31 23 C31 25.64 31 28.28 31 31 C26.05 31 21.1 31 16 31 C16 33.64 16 36.28 16 39 C13.36 39 10.72 39 8 39 C8 36.36 8 33.72 8 31 C5.36 31 2.72 31 0 31 C0 26.05 0 21.1 0 16 C-2.31 16 -4.62 16 -7 16 C-7 18.31 -7 20.62 -7 23 C-9.64 23 -12.28 23 -15 23 C-15 20.36 -15 17.72 -15 15 C-10.05 15 -5.1 15 0 15 C0 10.05 0 5.1 0 0 Z " fill="#4C4B49" transform="translate(109,180)"/>
<path d="M0 0 C2.31 0 4.62 0 7 0 C7 2.64 7 5.28 7 8 C9.64 8 12.28 8 15 8 C15 15.59 15 23.18 15 31 C7.41 31 -0.18 31 -8 31 C-8 28.36 -8 25.72 -8 23 C-10.64 23 -13.28 23 -16 23 C-16 20.36 -16 17.72 -16 15 C-10.72 15 -5.44 15 0 15 C0 10.05 0 5.1 0 0 Z " fill="#B88A5B" transform="translate(141,94)"/>
<path d="M0 0 C2.64 0 5.28 0 8 0 C8 5.28 8 10.56 8 16 C10.31 16 12.62 16 15 16 C15 20.95 15 25.9 15 31 C17.64 31 20.28 31 23 31 C23 33.64 23 36.28 23 39 C20.36 39 17.72 39 15 39 C15 44.28 15 49.56 15 55 C12.36 55 9.72 55 7 55 C7 42.13 7 29.26 7 16 C4.69 16 2.38 16 0 16 C0 10.72 0 5.44 0 0 Z " fill="#262626" transform="translate(157,148)"/>
<path d="M0 0 C2.64 0 5.28 0 8 0 C8 2.31 8 4.62 8 7 C10.64 7 13.28 7 16 7 C16 9.64 16 12.28 16 15 C21.28 15 26.56 15 32 15 C32 17.64 32 20.28 32 23 C29.36 23 26.72 23 24 23 C24 25.64 24 28.28 24 31 C21.36 31 18.72 31 16 31 C16 28.36 16 25.72 16 23 C10.72 23 5.44 23 0 23 C0 15.41 0 7.82 0 0 Z " fill="#62615F" transform="translate(70,102)"/>
<path d="M0 0 C2.64 0 5.28 0 8 0 C8 2.64 8 5.28 8 8 C5.69 8 3.38 8 1 8 C1 12.95 1 17.9 1 23 C3.64 23 6.28 23 9 23 C9 28.28 9 33.56 9 39 C11.31 39 13.62 39 16 39 C16 41.64 16 44.28 16 47 C13.36 47 10.72 47 8 47 C8 44.36 8 41.72 8 39 C5.36 39 2.72 39 0 39 C0 46.59 0 54.18 0 62 C-2.31 62 -4.62 62 -7 62 C-7 51.77 -7 41.54 -7 31 C-2.05 31 2.9 31 8 31 C8 28.69 8 26.38 8 24 C6.2365625 24.0309375 6.2365625 24.0309375 4.4375 24.0625 C0.52586533 24.06947261 -3.14497944 23.64250343 -7 23 C-7 20.69 -7 18.38 -7 16 C-4.69 16 -2.38 16 0 16 C0 10.72 0 5.44 0 0 Z " fill="#51402A" transform="translate(148,125)"/>
<path d="M0 0 C0.33 0 0.66 0 1 0 C1 2.64 1 5.28 1 8 C3.64 8 6.28 8 9 8 C9 5.36 9 2.72 9 0 C11.64 0 14.28 0 17 0 C17 7.92 17 15.84 17 24 C19.31 24 21.62 24 24 24 C24 26.31 24 28.62 24 31 C19.05 31 14.1 31 9 31 C9 28.36 9 25.72 9 23 C6.36 23 3.72 23 1 23 C1 20.36 1 17.72 1 15 C-1.31 15 -3.62 15 -6 15 C-6 12.69 -6 10.38 -6 8 C-4.02 8 -2.04 8 0 8 C0 5.36 0 2.72 0 0 Z " fill="#FEE873" transform="translate(77,86)"/>
<path d="M0 0 C2.64 0 5.28 0 8 0 C8 5.28 8 10.56 8 16 C10.64 16 13.28 16 16 16 C16 13.36 16 10.72 16 8 C18.64 8 21.28 8 24 8 C24 13.28 24 18.56 24 24 C21.36 24 18.72 24 16 24 C16 26.31 16 28.62 16 31 C13.36 31 10.72 31 8 31 C8 28.69 8 26.38 8 24 C5.36 24 2.72 24 0 24 C0 16.08 0 8.16 0 0 Z " fill="#7F5E3C" transform="translate(70,156)"/>
<path d="M0 0 C2.64 0 5.28 0 8 0 C8 7.92 8 15.84 8 24 C5.36 24 2.72 24 0 24 C0 26.64 0 29.28 0 32 C-5.28 32 -10.56 32 -16 32 C-16 31.67 -16 31.34 -16 31 C-13.36 31 -10.72 31 -8 31 C-8 23.41 -8 15.82 -8 8 C-5.36 8 -2.72 8 0 8 C0 5.36 0 2.72 0 0 Z " fill="#F1E168" transform="translate(133,70)"/>
<path d="M0 0 C2.31 0 4.62 0 7 0 C7 2.31 7 4.62 7 7 C9.64 7 12.28 7 15 7 C15 12.28 15 17.56 15 23 C12.69 23 10.38 23 8 23 C8 25.64 8 28.28 8 31 C2.72 31 -2.56 31 -8 31 C-8 28.36 -8 25.72 -8 23 C-3.05 23 1.9 23 7 23 C7 20.36 7 17.72 7 15 C4.69 15 2.38 15 0 15 C0 10.05 0 5.1 0 0 Z " fill="#54452B" transform="translate(133,188)"/>
<path d="M0 0 C2.64 0 5.28 0 8 0 C8 2.64 8 5.28 8 8 C10.64 8 13.28 8 16 8 C16 10.64 16 13.28 16 16 C18.64 16 21.28 16 24 16 C24 18.64 24 21.28 24 24 C18.72 24 13.44 24 8 24 C8 21.69 8 19.38 8 17 C5.36 17 2.72 17 0 17 C0 11.39 0 5.78 0 0 Z " fill="#272827" transform="translate(70,187)"/>
<path d="M0 0 C2.64 0 5.28 0 8 0 C8 13.2 8 26.4 8 40 C5.36 40 2.72 40 0 40 C0 26.8 0 13.6 0 0 Z " fill="#242425" transform="translate(54,54)"/>
<path d="M0 0 C5.28 0 10.56 0 16 0 C16 2.64 16 5.28 16 8 C18.64 8 21.28 8 24 8 C24 10.64 24 13.28 24 16 C21.36 16 18.72 16 16 16 C16 18.31 16 20.62 16 23 C13.36 23 10.72 23 8 23 C8 18.05 8 13.1 8 8 C5.36 8 2.72 8 0 8 C0 5.36 0 2.72 0 0 Z " fill="#E9C8E9" transform="translate(70,125)"/>
<path d="M0 0 C7.59 0 15.18 0 23 0 C23 7.92 23 15.84 23 24 C20.36 24 17.72 24 15 24 C15 18.72 15 13.44 15 8 C10.05 8 5.1 8 0 8 C0 5.36 0 2.72 0 0 Z " fill="#252526" transform="translate(94,70)"/>
<path d="M0 0 C2.31 0 4.62 0 7 0 C7 2.64 7 5.28 7 8 C9.64 8 12.28 8 15 8 C15 12.95 15 17.9 15 23 C10.05 23 5.1 23 0 23 C0 15.41 0 7.82 0 0 Z " fill="#845A38" transform="translate(149,164)"/>
<path d="M0 0 C2.64 0 5.28 0 8 0 C8 2.64 8 5.28 8 8 C5.69 8 3.38 8 1 8 C1 13.28 1 18.56 1 24 C-4.61 24 -10.22 24 -16 24 C-16 21.36 -16 18.72 -16 16 C-13.03 16 -10.06 16 -7 16 C-7 13.36 -7 10.72 -7 8 C-4.69 8 -2.38 8 0 8 C0 5.36 0 2.72 0 0 Z " fill="#25231F" transform="translate(156,203)"/>
<path d="M0 0 C2.64 0 5.28 0 8 0 C8 2.64 8 5.28 8 8 C10.31 8 12.62 8 15 8 C15 5.36 15 2.72 15 0 C17.64 0 20.28 0 23 0 C23 5.28 23 10.56 23 16 C17.72 16 12.44 16 7 16 C7 13.36 7 10.72 7 8 C4.69 8 2.38 8 0 8 C0 5.36 0 2.72 0 0 Z " fill="#C7B3B5" transform="translate(94,125)"/>
<path d="M0 0 C2.64 0 5.28 0 8 0 C8 2.64 8 5.28 8 8 C10.64 8 13.28 8 16 8 C16 13.28 16 18.56 16 24 C13.36 24 10.72 24 8 24 C8 21.36 8 18.72 8 16 C5.36 16 2.72 16 0 16 C0 10.72 0 5.44 0 0 Z " fill="#222222" transform="translate(62,125)"/>
<path d="M0 0 C2.64 0 5.28 0 8 0 C8 10.56 8 21.12 8 32 C5.36 32 2.72 32 0 32 C0 21.44 0 10.88 0 0 Z " fill="#252525" transform="translate(157,101)"/>
<path d="M0 0 C2.64 0 5.28 0 8 0 C8 5.28 8 10.56 8 16 C5.36 16 2.72 16 0 16 C0 18.64 0 21.28 0 24 C-2.64 24 -5.28 24 -8 24 C-8 18.72 -8 13.44 -8 8 C-5.36 8 -2.72 8 0 8 C0 5.36 0 2.72 0 0 Z " fill="#5B5555" transform="translate(86,70)"/>
<path d="M0 0 C2.64 0 5.28 0 8 0 C8 10.23 8 20.46 8 31 C5.36 31 2.72 31 0 31 C0 20.77 0 10.54 0 0 Z " fill="#535352" transform="translate(125,164)"/>
<path d="M0 0 C4.95 0 9.9 0 15 0 C15 7.92 15 15.84 15 24 C12.36 24 9.72 24 7 24 C7 18.72 7 13.44 7 8 C4.69 8 2.38 8 0 8 C0 5.36 0 2.72 0 0 Z " fill="#706042" transform="translate(110,117)"/>
<path d="M0 0 C7.92 0 15.84 0 24 0 C24 2.64 24 5.28 24 8 C16.08 8 8.16 8 0 8 C0 5.36 0 2.72 0 0 Z " fill="#252525" transform="translate(109,219)"/>
<path d="M0 0 C2.64 0 5.28 0 8 0 C8 7.92 8 15.84 8 24 C5.36 24 2.72 24 0 24 C0 16.08 0 8.16 0 0 Z " fill="#232424" transform="translate(70,156)"/>
<path d="M0 0 C2.64 0 5.28 0 8 0 C8 7.92 8 15.84 8 24 C5.36 24 2.72 24 0 24 C0 16.08 0 8.16 0 0 Z " fill="#FADD66" transform="translate(125,117)"/>
<path d="M0 0 C2.64 0 5.28 0 8 0 C8 7.92 8 15.84 8 24 C5.36 24 2.72 24 0 24 C0 16.08 0 8.16 0 0 Z " fill="#242424" transform="translate(54,101)"/>
<path d="M0 0 C2.97 0 5.94 0 9 0 C9 5.28 9 10.56 9 16 C11.31 16 13.62 16 16 16 C16 16.33 16 16.66 16 17 C13.36 17 10.72 17 8 17 C8 14.36 8 11.72 8 9 C5.69 9 3.38 9 1 9 C1 21.87 1 34.74 1 48 C3.31 48 5.62 48 8 48 C8 50.31 8 52.62 8 55 C5.36 55 2.72 55 0 55 C0 36.85 0 18.7 0 0 Z " fill="#837945" transform="translate(62,46)"/>
<path d="M0 0 C2.64 0 5.28 0 8 0 C8 2.64 8 5.28 8 8 C10.31 8 12.62 8 15 8 C15 10.64 15 13.28 15 16 C10.05 16 5.1 16 0 16 C0 10.72 0 5.44 0 0 Z " fill="#FDDB66" transform="translate(125,195)"/>
<path d="M0 0 C2.64 0 5.28 0 8 0 C8 4.95 8 9.9 8 15 C2.72 15 -2.56 15 -8 15 C-8 12.36 -8 9.72 -8 7 C-5.36 7 -2.72 7 0 7 C0 4.69 0 2.38 0 0 Z " fill="#9A8169" transform="translate(86,141)"/>
<path d="M0 0 C2.64 0 5.28 0 8 0 C8 7.59 8 15.18 8 23 C5.36 23 2.72 23 0 23 C0 15.41 0 7.82 0 0 Z " fill="#89212D" transform="translate(70,102)"/>
<path d="M0 0 C2.64 0 5.28 0 8 0 C8 7.59 8 15.18 8 23 C5.36 23 2.72 23 0 23 C0 15.41 0 7.82 0 0 Z " fill="#C3B367" transform="translate(78,55)"/>
<path d="M0 0 C2.64 0 5.28 0 8 0 C8 4.95 8 9.9 8 15 C2.72 15 -2.56 15 -8 15 C-8 12.69 -8 10.38 -8 8 C-5.36 8 -2.72 8 0 8 C0 5.36 0 2.72 0 0 Z " fill="#545353" transform="translate(133,94)"/>
<path d="M0 0 C2.64 0 5.28 0 8 0 C8 2.64 8 5.28 8 8 C10.31 8 12.62 8 15 8 C15 10.31 15 12.62 15 15 C10.05 15 5.1 15 0 15 C0 10.05 0 5.1 0 0 Z " fill="#565553" transform="translate(94,86)"/>
<path d="M0 0 C2.31 0 4.62 0 7 0 C7 7.59 7 15.18 7 23 C4.69 23 2.38 23 0 23 C0 15.41 0 7.82 0 0 Z " fill="#845A39" transform="translate(133,164)"/>
<path d="M0 0 C2.64 0 5.28 0 8 0 C8 2.97 8 5.94 8 9 C5.36 9 2.72 9 0 9 C0 11.31 0 13.62 0 16 C-2.64 16 -5.28 16 -8 16 C-8 13.36 -8 10.72 -8 8 C-5.36 8 -2.72 8 0 8 C0 5.36 0 2.72 0 0 Z " fill="#252525" transform="translate(188,195)"/>
<path d="M0 0 C5.28 0 10.56 0 16 0 C16 2.64 16 5.28 16 8 C10.72 8 5.44 8 0 8 C0 5.36 0 2.72 0 0 Z " fill="#252525" transform="translate(164,211)"/>
<path d="M0 0 C2.64 0 5.28 0 8 0 C8 2.64 8 5.28 8 8 C5.69 8 3.38 8 1 8 C1 10.64 1 13.28 1 16 C-1.64 16 -4.28 16 -7 16 C-7 13.36 -7 10.72 -7 8 C-4.69 8 -2.38 8 0 8 C0 5.36 0 2.72 0 0 Z " fill="#53442D" transform="translate(148,203)"/>
<path d="M0 0 C5.28 0 10.56 0 16 0 C16 2.64 16 5.28 16 8 C10.72 8 5.44 8 0 8 C0 5.36 0 2.72 0 0 Z " fill="#675036" transform="translate(148,195)"/>
<path d="M0 0 C2.64 0 5.28 0 8 0 C8 5.28 8 10.56 8 16 C5.36 16 2.72 16 0 16 C0 10.72 0 5.44 0 0 Z " fill="#7E502E" transform="translate(78,109)"/>
<path d="M0 0 C2.64 0 5.28 0 8 0 C8 5.28 8 10.56 8 16 C5.36 16 2.72 16 0 16 C0 10.72 0 5.44 0 0 Z " fill="#574C49" transform="translate(109,78)"/>
<path d="M0 0 C2.64 0 5.28 0 8 0 C8 5.28 8 10.56 8 16 C5.36 16 2.72 16 0 16 C0 10.72 0 5.44 0 0 Z " fill="#555053" transform="translate(86,70)"/>
<path d="M0 0 C0.33 0 0.66 0 1 0 C1 2.31 1 4.62 1 7 C5.95 7.33 10.9 7.66 16 8 C16 10.31 16 12.62 16 15 C11.05 15 6.1 15 1 15 C1 12.69 1 10.38 1 8 C-1.64 8 -4.28 8 -7 8 C-7 7.67 -7 7.34 -7 7 C-4.69 7 -2.38 7 0 7 C0 4.69 0 2.38 0 0 Z " fill="#805838" transform="translate(140,141)"/>
<path d="M0 0 C2.31 0 4.62 0 7 0 C7 5.28 7 10.56 7 16 C4.36 16 1.72 16 -1 16 C-1.02685095 13.52076199 -1.04676547 11.0418116 -1.0625 8.5625 C-1.07506836 7.50192383 -1.07506836 7.50192383 -1.08789062 6.41992188 C-1.09653588 4.61306441 -1.05220011 2.80612397 -1 1 C-0.67 0.67 -0.34 0.34 0 0 Z " fill="#252526" transform="translate(150,85)"/>
<path d="M0 0 C2.64 0 5.28 0 8 0 C8 4.95 8 9.9 8 15 C5.36 15 2.72 15 0 15 C0 10.05 0 5.1 0 0 Z " fill="#856835" transform="translate(109,180)"/>
<path d="M0 0 C2.64 0 5.28 0 8 0 C8 2.31 8 4.62 8 7 C10.31 7 12.62 7 15 7 C15 9.64 15 12.28 15 15 C12.69 15 10.38 15 8 15 C8 12.69 8 10.38 8 8 C5.36 8 2.72 8 0 8 C0 5.36 0 2.72 0 0 Z " fill="#BD8D65" transform="translate(117,141)"/>
<path d="M0 0 C2.64 0 5.28 0 8 0 C8 4.95 8 9.9 8 15 C5.36 15 2.72 15 0 15 C0 10.05 0 5.1 0 0 Z " fill="#2F231A" transform="translate(149,133)"/>
<path d="M0 0 C2.31 0 4.62 0 7 0 C7 5.28 7 10.56 7 16 C4.69 16 2.38 16 0 16 C0 10.72 0 5.44 0 0 Z " fill="#835938" transform="translate(102,164)"/>
<path d="M0 0 C2.31 0 4.62 0 7 0 C7 5.28 7 10.56 7 16 C4.69 16 2.38 16 0 16 C0 10.72 0 5.44 0 0 Z " fill="#7E212D" transform="translate(102,117)"/>
<path d="M0 0 C2.31 0 4.62 0 7 0 C7 5.28 7 10.56 7 16 C4.69 16 2.38 16 0 16 C0 10.72 0 5.44 0 0 Z " fill="#FDFDFD" transform="translate(63,109)"/>
<path d="M0 0 C4.95 0 9.9 0 15 0 C15 2.31 15 4.62 15 7 C10.05 7 5.1 7 0 7 C0 4.69 0 2.38 0 0 Z " fill="#50412B" transform="translate(149,188)"/>
<path d="M0 0 C2.31 0 4.62 0 7 0 C7 4.95 7 9.9 7 15 C4.69 15 2.38 15 0 15 C0 10.05 0 5.1 0 0 Z " fill="#B8934A" transform="translate(102,180)"/>
<path d="M0 0 C4.95 0 9.9 0 15 0 C15 2.31 15 4.62 15 7 C10.05 7 5.1 7 0 7 C0 4.69 0 2.38 0 0 Z " fill="#885842" transform="translate(102,141)"/>
<path d="M0 0 C2.31 0 4.62 0 7 0 C7 4.95 7 9.9 7 15 C4.69 15 2.38 15 0 15 C0 10.05 0 5.1 0 0 Z " fill="#7E502D" transform="translate(118,125)"/>
<path d="M0 0 C2.31 0 4.62 0 7 0 C7 2.64 7 5.28 7 8 C5.02 8 3.04 8 1 8 C1 9.98 1 11.96 1 14 C5.29 14 9.58 14 14 14 C14 12.02 14 10.04 14 8 C14.33 8 14.66 8 15 8 C15 10.31 15 12.62 15 15 C10.05 15 5.1 15 0 15 C0 10.05 0 5.1 0 0 Z " fill="#4E474B" transform="translate(94,86)"/>
<path d="M0 0 C2.64 0 5.28 0 8 0 C8 2.64 8 5.28 8 8 C5.69 8 3.38 8 1 8 C1 13.28 1 18.56 1 24 C0.67 24 0.34 24 0 24 C0 16.08 0 8.16 0 0 Z " fill="#A4A4A4" transform="translate(62,101)"/>
<path d="M0 0 C0 0.33 0 0.66 0 1 C-2.64 1 -5.28 1 -8 1 C-8 3.64 -8 6.28 -8 9 C-10.64 9 -13.28 9 -16 9 C-16 6.36 -16 3.72 -16 1 C-10.61509359 0.08342019 -5.45769811 -0.11138159 0 0 Z " fill="#242426" transform="translate(141,69)"/>
<path d="M0 0 C2.64 0 5.28 0 8 0 C8 2.64 8 5.28 8 8 C5.69 8 3.38 8 1 8 C1 10.64 1 13.28 1 16 C0.67 16 0.34 16 0 16 C0 10.72 0 5.44 0 0 Z " fill="#76573F" transform="translate(148,125)"/>
<path d="M0 0 C0.33 0 0.66 0 1 0 C1 2.64 1 5.28 1 8 C-1.97 8 -4.94 8 -8 8 C-8 10.31 -8 12.62 -8 15 C-10.31 15 -12.62 15 -15 15 C-15 12.36 -15 9.72 -15 7 C-10.05 7 -5.1 7 0 7 C0 4.69 0 2.38 0 0 Z " fill="#C4B267" transform="translate(109,94)"/>
<path d="M0 0 C2.64 0 5.28 0 8 0 C8 2.31 8 4.62 8 7 C5.69 7 3.38 7 1 7 C1 12.28 1 17.56 1 23 C0.67 23 0.34 23 0 23 C0 15.41 0 7.82 0 0 Z " fill="#6C5D60" transform="translate(70,102)"/>
<path d="M0 0 C2.64 0 5.28 0 8 0 C8 5.28 8 10.56 8 16 C7.67 16 7.34 16 7 16 C7 13.36 7 10.72 7 8 C4.69 8 2.38 8 0 8 C0 5.36 0 2.72 0 0 Z " fill="#F4DF6B" transform="translate(86,86)"/>
<path d="M0 0 C2.97 0 5.94 0 9 0 C9 2.64 9 5.28 9 8 C6.03 8 3.06 8 0 8 C0 5.36 0 2.72 0 0 Z " fill="#252525" transform="translate(62,46)"/>
<path d="M0 0 C2.64 0 5.28 0 8 0 C8 2.64 8 5.28 8 8 C5.36 8 2.72 8 0 8 C0 5.36 0 2.72 0 0 Z " fill="#515252" transform="translate(125,211)"/>
<path d="M0 0 C2.64 0 5.28 0 8 0 C8 2.64 8 5.28 8 8 C5.36 8 2.72 8 0 8 C0 5.36 0 2.72 0 0 Z " fill="#D48DD5" transform="translate(117,211)"/>
<path d="M0 0 C2.64 0 5.28 0 8 0 C8 2.64 8 5.28 8 8 C5.36 8 2.72 8 0 8 C0 5.36 0 2.72 0 0 Z " fill="#AEAFB0" transform="translate(109,203)"/>
<path d="M0 0 C2.64 0 5.28 0 8 0 C8 2.64 8 5.28 8 8 C5.36 8 2.72 8 0 8 C0 5.36 0 2.72 0 0 Z " fill="#272726" transform="translate(156,203)"/>
<path d="M0 0 C2.64 0 5.28 0 8 0 C8 2.64 8 5.28 8 8 C5.36 8 2.72 8 0 8 C0 5.36 0 2.72 0 0 Z " fill="#916D04" transform="translate(117,203)"/>
<path d="M0 0 C2.64 0 5.28 0 8 0 C8 2.64 8 5.28 8 8 C5.36 8 2.72 8 0 8 C0 5.36 0 2.72 0 0 Z " fill="#CDB560" transform="translate(125,195)"/>
<path d="M0 0 C2.64 0 5.28 0 8 0 C8 2.64 8 5.28 8 8 C5.36 8 2.72 8 0 8 C0 5.36 0 2.72 0 0 Z " fill="#DA9ACA" transform="translate(86,195)"/>
<path d="M0 0 C2.64 0 5.28 0 8 0 C8 2.64 8 5.28 8 8 C5.36 8 2.72 8 0 8 C0 5.36 0 2.72 0 0 Z " fill="#242425" transform="translate(180,187)"/>
<path d="M0 0 C2.64 0 5.28 0 8 0 C8 2.64 8 5.28 8 8 C5.36 8 2.72 8 0 8 C0 5.36 0 2.72 0 0 Z " fill="#845A3B" transform="translate(125,156)"/>
<path d="M0 0 C2.64 0 5.28 0 8 0 C8 2.64 8 5.28 8 8 C5.36 8 2.72 8 0 8 C0 5.36 0 2.72 0 0 Z " fill="#211C21" transform="translate(70,141)"/>
<path d="M0 0 C2.64 0 5.28 0 8 0 C8 2.64 8 5.28 8 8 C5.36 8 2.72 8 0 8 C0 5.36 0 2.72 0 0 Z " fill="#BEA4BD" transform="translate(86,133)"/>
<path d="M0 0 C2.64 0 5.28 0 8 0 C8 2.64 8 5.28 8 8 C5.36 8 2.72 8 0 8 C0 5.36 0 2.72 0 0 Z " fill="#433943" transform="translate(70,133)"/>
<path d="M0 0 C2.64 0 5.28 0 8 0 C8 2.64 8 5.28 8 8 C5.36 8 2.72 8 0 8 C0 5.36 0 2.72 0 0 Z " fill="#62615D" transform="translate(78,109)"/>
<path d="M0 0 C2.64 0 5.28 0 8 0 C8 2.64 8 5.28 8 8 C5.36 8 2.72 8 0 8 C0 5.36 0 2.72 0 0 Z " fill="#8E830D" transform="translate(78,78)"/>
<path d="M0 0 C2.64 0 5.28 0 8 0 C8 2.64 8 5.28 8 8 C5.36 8 2.72 8 0 8 C0 5.36 0 2.72 0 0 Z " fill="#2A243F" transform="translate(109,70)"/>
<path d="M0 0 C2.64 0 5.28 0 8 0 C8 2.64 8 5.28 8 8 C5.36 8 2.72 8 0 8 C0 5.36 0 2.72 0 0 Z " fill="#242526" transform="translate(117,62)"/>
<path d="M0 0 C0 2.64 0 5.28 0 8 C-2.64 8 -5.28 8 -8 8 C-8 5.69 -8 3.38 -8 1 C-1.125 0 -1.125 0 0 0 Z " fill="#565151" transform="translate(102,117)"/>
<path d="M0 0 C2.31 0 4.62 0 7 0 C7 2.64 7 5.28 7 8 C4.69 8 2.38 8 0 8 C0 5.36 0 2.72 0 0 Z " fill="#DDAACC" transform="translate(141,211)"/>
<path d="M0 0 C2.31 0 4.62 0 7 0 C7 2.64 7 5.28 7 8 C4.69 8 2.38 8 0 8 C0 5.36 0 2.72 0 0 Z " fill="#291E26" transform="translate(133,211)"/>
<path d="M0 0 C2.31 0 4.62 0 7 0 C7 2.64 7 5.28 7 8 C4.69 8 2.38 8 0 8 C0 5.36 0 2.72 0 0 Z " fill="#CAA865" transform="translate(133,203)"/>
<path d="M0 0 C2.31 0 4.62 0 7 0 C7 2.64 7 5.28 7 8 C4.69 8 2.38 8 0 8 C0 5.36 0 2.72 0 0 Z " fill="#261F13" transform="translate(141,203)"/>
<path d="M0 0 C2.64 0 5.28 0 8 0 C8 2.31 8 4.62 8 7 C5.36 7 2.72 7 0 7 C0 4.69 0 2.38 0 0 Z " fill="#51454C" transform="translate(86,188)"/>
<path d="M0 0 C2.64 0 5.28 0 8 0 C8 2.31 8 4.62 8 7 C5.36 7 2.72 7 0 7 C0 4.69 0 2.38 0 0 Z " fill="#E09DD0" transform="translate(78,188)"/>
<path d="M0 0 C2.64 0 5.28 0 8 0 C8 2.31 8 4.62 8 7 C5.36 7 2.72 7 0 7 C0 4.69 0 2.38 0 0 Z " fill="#AA7947" transform="translate(117,188)"/>
<path d="M0 0 C2.64 0 5.28 0 8 0 C8 2.31 8 4.62 8 7 C5.36 7 2.72 7 0 7 C0 4.69 0 2.38 0 0 Z " fill="#222323" transform="translate(78,180)"/>
<path d="M0 0 C2.64 0 5.28 0 8 0 C8 2.31 8 4.62 8 7 C5.36 7 2.72 7 0 7 C0 4.69 0 2.38 0 0 Z " fill="#BA8957" transform="translate(86,180)"/>
<path d="M0 0 C2.64 0 5.28 0 8 0 C8 2.31 8 4.62 8 7 C5.36 7 2.72 7 0 7 C0 4.69 0 2.38 0 0 Z " fill="#3B3127" transform="translate(78,149)"/>
<path d="M0 0 C2.64 0 5.28 0 8 0 C8 2.31 8 4.62 8 7 C5.36 7 2.72 7 0 7 C0 4.69 0 2.38 0 0 Z " fill="#FDE874" transform="translate(117,141)"/>
<path d="M0 0 C2.64 0 5.28 0 8 0 C8 2.31 8 4.62 8 7 C5.36 7 2.72 7 0 7 C0 4.69 0 2.38 0 0 Z " fill="#594939" transform="translate(86,141)"/>
<path d="M0 0 C2.64 0 5.28 0 8 0 C8 2.31 8 4.62 8 7 C5.36 7 2.72 7 0 7 C0 4.69 0 2.38 0 0 Z " fill="#C3A8C3" transform="translate(78,141)"/>
<path d="M0 0 C2.31 0 4.62 0 7 0 C7 2.64 7 5.28 7 8 C4.69 8 2.38 8 0 8 C0 5.36 0 2.72 0 0 Z " fill="#5D5C58" transform="translate(94,133)"/>
<path d="M0 0 C2.31 0 4.62 0 7 0 C7 2.64 7 5.28 7 8 C4.69 8 2.38 8 0 8 C0 5.36 0 2.72 0 0 Z " fill="#F4FEFE" transform="translate(110,125)"/>
<path d="M0 0 C2.31 0 4.62 0 7 0 C7 2.64 7 5.28 7 8 C4.69 8 2.38 8 0 8 C0 5.36 0 2.72 0 0 Z " fill="#F3FCFC" transform="translate(94,125)"/>
<path d="M0 0 C2.31 0 4.62 0 7 0 C7 2.64 7 5.28 7 8 C4.69 8 2.38 8 0 8 C0 5.36 0 2.72 0 0 Z " fill="#5D505D" transform="translate(86,125)"/>
<path d="M0 0 C2.31 0 4.62 0 7 0 C7 2.64 7 5.28 7 8 C4.69 8 2.38 8 0 8 C0 5.36 0 2.72 0 0 Z " fill="#AAAAAA" transform="translate(110,117)"/>
<path d="M0 0 C2.31 0 4.62 0 7 0 C7 2.64 7 5.28 7 8 C4.69 8 2.38 8 0 8 C0 5.36 0 2.72 0 0 Z " fill="#8E2A37" transform="translate(102,117)"/>
<path d="M0 0 C2.64 0 5.28 0 8 0 C8 2.31 8 4.62 8 7 C5.36 7 2.72 7 0 7 C0 4.69 0 2.38 0 0 Z " fill="#C2B460" transform="translate(125,110)"/>
<path d="M0 0 C2.64 0 5.28 0 8 0 C8 2.31 8 4.62 8 7 C5.36 7 2.72 7 0 7 C0 4.69 0 2.38 0 0 Z " fill="#8F7201" transform="translate(117,102)"/>
<path d="M0 0 C2.64 0 5.28 0 8 0 C8 2.31 8 4.62 8 7 C5.36 7 2.72 7 0 7 C0 4.69 0 2.38 0 0 Z " fill="#27272A" transform="translate(62,94)"/>
<path d="M0 0 C2.31 0 4.62 0 7 0 C7 2.64 7 5.28 7 8 C4.69 8 2.38 8 0 8 C0 5.36 0 2.72 0 0 Z " fill="#5C573B" transform="translate(141,86)"/>
<path d="M0 0 C2.31 0 4.62 0 7 0 C7 2.31 7 4.62 7 7 C4.69 7 2.38 7 0 7 C0 4.69 0 2.38 0 0 Z " fill="#7E5C3B" transform="translate(180,196)"/>
<path d="M0 0 C2.31 0 4.62 0 7 0 C7 2.31 7 4.62 7 7 C4.69 7 2.38 7 0 7 C0 4.69 0 2.38 0 0 Z " fill="#7B653D" transform="translate(149,196)"/>
<path d="M0 0 C2.31 0 4.62 0 7 0 C7 2.31 7 4.62 7 7 C4.69 7 2.38 7 0 7 C0 4.69 0 2.38 0 0 Z " fill="#7E5C3B" transform="translate(172,188)"/>
<path d="M0 0 C2.31 0 4.62 0 7 0 C7 2.31 7 4.62 7 7 C4.69 7 2.38 7 0 7 C0 4.69 0 2.38 0 0 Z " fill="#7B663D" transform="translate(141,188)"/>
<path d="M0 0 C2.31 0 4.62 0 7 0 C7 2.31 7 4.62 7 7 C4.69 7 2.38 7 0 7 C0 4.69 0 2.38 0 0 Z " fill="#825838" transform="translate(110,180)"/>
<path d="M0 0 C2.31 0 4.62 0 7 0 C7 2.31 7 4.62 7 7 C4.69 7 2.38 7 0 7 C0 4.69 0 2.38 0 0 Z " fill="#B68D5B" transform="translate(102,180)"/>
<path d="M0 0 C2.31 0 4.62 0 7 0 C7 2.31 7 4.62 7 7 C4.69 7 2.38 7 0 7 C0 4.69 0 2.38 0 0 Z " fill="#825838" transform="translate(94,180)"/>
<path d="M0 0 C2.31 0 4.62 0 7 0 C7 2.31 7 4.62 7 7 C4.69 7 2.38 7 0 7 C0 4.69 0 2.38 0 0 Z " fill="#644255" transform="translate(141,141)"/>
<path d="M0 0 C2.31 0 4.62 0 7 0 C7 2.31 7 4.62 7 7 C4.69 7 2.38 7 0 7 C0 4.69 0 2.38 0 0 Z " fill="#DCBD66" transform="translate(94,141)"/>
<path d="M0 0 C2.31 0 4.62 0 7 0 C7 2.31 7 4.62 7 7 C4.69 7 2.38 7 0 7 C0 4.69 0 2.38 0 0 Z " fill="#F6FFFF" transform="translate(102,133)"/>
<path d="M0 0 C2.31 0 4.62 0 7 0 C7 2.31 7 4.62 7 7 C4.69 7 2.38 7 0 7 C0 4.69 0 2.38 0 0 Z " fill="#FFDCFF" transform="translate(71,125)"/>
<path d="M0 0 C2.64 0 5.28 0 8 0 C8 2.64 8 5.28 8 8 C10.64 8 13.28 8 16 8 C16 10.64 16 13.28 16 16 C15.67 16 15.34 16 15 16 C15 13.69 15 11.38 15 9 C12.69 9 10.38 9 8 9 C8 11.31 8 13.62 8 16 C7.67 16 7.34 16 7 16 C7 13.69 7 11.38 7 9 C4.69 9 2.38 9 0 9 C0 8.67 0 8.34 0 8 C2.31 8 4.62 8 7 8 C7 5.69 7 3.38 7 1 C4.69 1 2.38 1 0 1 C0 0.67 0 0.34 0 0 Z " fill="#5B4632" transform="translate(172,187)"/>
<path d="M0 0 C1.98 0 3.96 0 6 0 C6 1.98 6 3.96 6 6 C4.02 6 2.04 6 0 6 C0 4.02 0 2.04 0 0 Z " fill="#D3BE69" transform="translate(102,110)"/>
</svg>
